<?xml version="1.0" encoding="UTF-8" standalone="no"?>
<svg
   xmlns:dc="http://purl.org/dc/elements/1.1/"
   xmlns:cc="http://creativecommons.org/ns#"
   xmlns:rdf="http://www.w3.org/1999/02/22-rdf-syntax-ns#"
   xmlns:svg="http://www.w3.org/2000/svg"
   xmlns="http://www.w3.org/2000/svg"
   xmlns:sodipodi="http://sodipodi.sourceforge.net/DTD/sodipodi-0.dtd"
   xmlns:inkscape="http://www.inkscape.org/namespaces/inkscape"
   width="50"
   height="40"
   viewBox="0 0 50 40"
   version="1.1"
   id="svg6"
   sodipodi:docname="baseline-explore-24px.svg"
   inkscape:version="0.92.4 (5da689c313, 2019-01-14)">
  <metadata
     id="metadata12">
    <rdf:RDF>
      <cc:Work
         rdf:about="">
        <dc:format>image/svg+xml</dc:format>
        <dc:type
           rdf:resource="http://purl.org/dc/dcmitype/StillImage" />
        <dc:title></dc:title>
      </cc:Work>
    </rdf:RDF>
  </metadata>
  <defs
     id="defs10" />
  <sodipodi:namedview
     pagecolor="#ffffff"
     bordercolor="#666666"
     borderopacity="1"
     objecttolerance="10"
     gridtolerance="10"
     guidetolerance="10"
     inkscape:pageopacity="0"
     inkscape:pageshadow="2"
     inkscape:window-width="5120"
     inkscape:window-height="2724"
     id="namedview8"
     showgrid="false"
     inkscape:zoom="27.812867"
     inkscape:cx="14.116631"
     inkscape:cy="8.8776582"
     inkscape:window-x="7664"
     inkscape:window-y="-16"
     inkscape:window-maximized="1"
     inkscape:current-layer="svg6" />
  <path
     d="m 25,18.684661 c -0.729415,0 -1.315339,0.585924 -1.315339,1.315339 0,0.729415 0.585924,1.315339 1.315339,1.315339 0.729415,0 1.315339,-0.585924 1.315339,-1.315339 0,-0.729415 -0.585924,-1.315339 -1.315339,-1.315339 z M 25,8.042373 C 18.39939,8.042373 13.042373,13.39939 13.042373,20 13.042373,26.600611 18.39939,31.957627 25,31.957627 31.600611,31.957627 36.957627,26.600611 36.957627,20 36.957627,13.39939 31.600611,8.042373 25,8.042373 Z m 2.618721,14.576348 -9.793297,4.555856 4.555856,-9.793297 9.793297,-4.555856 z"
     id="path2"
     inkscape:connector-curvature="0"
     style="stroke-width:1.19576263" />
  <path
     d="M 0,16 H 24 V 40 H 0 Z"
     id="path4"
     inkscape:connector-curvature="0"
     style="fill:none" />
</svg>
